<?xml version="1.0" encoding="UTF-8" standalone="no"?>
<!-- Uploaded to: SVG Repo, www.svgrepo.com, Generator: SVG Repo Mixer Tools -->

<svg
   width="666.1059"
   height="666.10571"
   viewBox="0 0 19.983177 19.983171"
   version="1.1"
   id="svg1"
   sodipodi:docname="git.svg"
   inkscape:version="1.4.2 (ebf0e940d0, 2025-05-08)"
   xmlns:inkscape="http://www.inkscape.org/namespaces/inkscape"
   xmlns:sodipodi="http://sodipodi.sourceforge.net/DTD/sodipodi-0.dtd"
   xmlns="http://www.w3.org/2000/svg"
   xmlns:svg="http://www.w3.org/2000/svg">
  <defs
     id="defs1" />
  <sodipodi:namedview
     id="namedview1"
     pagecolor="#ffffff"
     bordercolor="#000000"
     borderopacity="0.25"
     inkscape:showpageshadow="2"
     inkscape:pageopacity="0.0"
     inkscape:pagecheckerboard="0"
     inkscape:deskcolor="#d1d1d1"
     inkscape:zoom="0.89625"
     inkscape:cx="352.5802"
     inkscape:cy="202.51046"
     inkscape:window-width="1500"
     inkscape:window-height="968"
     inkscape:window-x="0"
     inkscape:window-y="0"
     inkscape:window-maximized="1"
     inkscape:current-layer="svg1" />
  <title
     id="title1">git</title>
  <rect
     width="24"
     height="24"
     fill="none"
     id="rect1"
     x="-2.008409"
     y="-2.0184145" />
  <path
     d="m 0.59159098,8.5715854 5.78000002,-5.79 1.69,1.7 a 2,2 0 0 0 0.93,2.23 v 5.5399996 a 2,2 0 0 0 -1,1.73 2,2 0 0 0 4,0 2,2 0 0 0 -1,-1.73 V 7.3915854 l 2.07,2.09 a 1.17,1.17 0 0 0 -0.07,0.5 2,2 0 1 0 2,-2 1.17,1.17 0 0 0 -0.5,0.07 l -2.57,-2.57 a 2,2 0 0 0 -1.15,-2.34 2.1,2.1 0 0 0 -1.28,-0.09 l -1.7,-1.69 0.79,-0.78000001 a 2,2 0 0 1 2.82,0 l 8,8.00000001 a 2,2 0 0 1 0,2.8199996 l -8,8 a 2,2 0 0 1 -2.82,0 l -8.00000002,-8 a 2,2 0 0 1 0.01,-2.8299996 z"
     id="path1" />
</svg>
